<svg width="21" height="20" viewBox="0 0 21 20" fill="none" xmlns="http://www.w3.org/2000/svg">
<path d="M15.0833 5.41667H15.0917M6.33332 1.66667H14.6667C16.9678 1.66667 18.8333 3.53215 18.8333 5.83334V14.1667C18.8333 16.4679 16.9678 18.3333 14.6667 18.3333H6.33332C4.03214 18.3333 2.16666 16.4679 2.16666 14.1667V5.83334C2.16666 3.53215 4.03214 1.66667 6.33332 1.66667ZM13.8333 9.47501C13.9362 10.1685 13.8177 10.8769 13.4948 11.4992C13.1719 12.1215 12.6609 12.6262 12.0347 12.9414C11.4084 13.2566 10.6987 13.3663 10.0065 13.2549C9.31426 13.1436 8.67479 12.8167 8.17902 12.321C7.68325 11.8252 7.35643 11.1857 7.24505 10.4935C7.13366 9.8013 7.24338 9.09158 7.55859 8.46532C7.87381 7.83905 8.37848 7.32812 9.00081 7.00521C9.62314 6.68229 10.3315 6.56383 11.025 6.66667C11.7324 6.77158 12.3874 7.10122 12.8931 7.60693C13.3988 8.11263 13.7284 8.76757 13.8333 9.47501Z" stroke="#A80009" stroke-width="2" stroke-linecap="round" stroke-linejoin="round"/>
</svg>
